<svg width="99" height="94" viewBox="0 0 99 94" fill="none" xmlns="http://www.w3.org/2000/svg">
<g filter="url(#filter0_d)">
<path d="M2 43C2 19.246 22.3649 0 47.5 0C72.6351 0 93 19.246 93 43C93 66.754 72.6351 86 47.5 86C22.3649 86 2 66.754 2 43ZM55.5726 63.1129V43H68.5804C70.5435 43 71.5343 40.746 70.1399 39.4456L49.0595 19.6274C48.1972 18.8125 46.8212 18.8125 45.9589 19.6274L24.8601 39.4456C23.4657 40.7633 24.4565 43 26.4196 43H39.4274V63.1129C39.4274 64.2573 40.4181 65.1936 41.629 65.1936H53.371C54.5819 65.1936 55.5726 64.2573 55.5726 63.1129Z" fill="#83D2FF"/>
</g>
<defs>
<filter id="filter0_d" x="0" y="0" width="99" height="94" filterUnits="userSpaceOnUse" color-interpolation-filters="sRGB">
<feFlood flood-opacity="0" result="BackgroundImageFix"/>
<feColorMatrix in="SourceAlpha" type="matrix" values="0 0 0 0 0 0 0 0 0 0 0 0 0 0 0 0 0 0 127 0"/>
<feOffset dx="2" dy="4"/>
<feGaussianBlur stdDeviation="2"/>
<feColorMatrix type="matrix" values="0 0 0 0 0 0 0 0 0 0 0 0 0 0 0 0 0 0 0.25 0"/>
<feBlend mode="normal" in2="BackgroundImageFix" result="effect1_dropShadow"/>
<feBlend mode="normal" in="SourceGraphic" in2="effect1_dropShadow" result="shape"/>
</filter>
</defs>
</svg>
